<svg xmlns="http://www.w3.org/2000/svg" width="200" height="200" viewBox="0 0 200 200">
  <rect width="100%" height="100%" fill="white"/>
  <g fill="#3c71a1" fill-rule="evenodd">
    <path d="M 197.58 67.62 L 197.19 67.51 L 196.77 67.42 L 196.32 67.35 L 195.86 67.30 L 195.37 67.27 L 194.87 67.25 L 194.36 67.24 L 193.83 67.25 L 193.29 67.26 L 192.75 67.28 L 192.20 67.30 L 191.64 67.33 L 191.08 67.36 L 190.52 67.39 L 189.96 67.42 L 189.41 67.45 L 188.86 67.46 L 188.32 67.48 L 187.78 67.48 L 187.24 67.49 L 186.71 67.49 L 186.19 67.48 L 185.66 67.47 L 185.14 67.46 L 184.63 67.45 L 184.11 67.44 L 183.60 67.43 L 183.08 67.41 L 182.57 67.40 L 182.05 67.38 L 181.54 67.37 L 181.03 67.36 L 180.51 67.36 L 179.99 67.35 L 179.47 67.35 L 178.95 67.35 L 178.43 67.35 L 177.91 67.35 L 177.39 67.35 L 176.87 67.35 L 176.34 67.36 L 175.82 67.37 L 175.29 67.37 L 174.77 67.38 L 174.24 67.39 L 173.71 67.40 L 173.18 67.41 L 172.66 67.41 L 172.13 67.42 L 171.60 67.43 L 171.07 67.44 L 170.54 67.44 L 170.01 67.45 L 169.48 67.45 L 168.95 67.46 L 168.42 67.46 L 167.89 67.46 L 167.36 67.46 L 166.83 67.46 L 166.30 67.46 L 165.77 67.45 L 165.24 67.44 L 164.71 67.43 L 164.19 67.42 L 163.66 67.40 L 163.13 67.38 L 162.61 67.37 L 162.08 67.35 L 161.56 67.33 L 161.03 67.32 L 160.51 67.30 L 159.99 67.29 L 159.47 67.29 L 158.95 67.29 L 158.43 67.30 L 157.91 67.31 L 157.40 67.33 L 156.89 67.35 L 156.38 67.39 L 155.87 67.44 L 155.36 67.49 L 154.86 67.56 L 154.36 67.64 L 153.86 67.73 L 153.36 67.83 L 152.87 67.94 L 152.39 68.06 L 151.91 68.20 L 151.44 68.35 L 150.97 68.50 L 150.51 68.68 L 150.05 68.86 L 149.61 69.06 L 149.17 69.27 L 148.74 69.49 L 148.32 69.73 L 147.91 69.98 L 147.50 70.24 L 147.11 70.52 L 146.73 70.81 L 146.35 71.11 L 145.99 71.42 L 145.63 71.75 L 145.28 72.08 L 144.94 72.43 L 144.60 72.78 L 144.27 73.14 L 143.95 73.51 L 143.63 73.88 L 143.32 74.27 L 143.01 74.65 L 142.71 75.04 L 142.40 75.44 L 142.11 75.84 L 141.81 76.24 L 141.52 76.64 L 141.23 77.04 L 140.93 77.44 L 140.64 77.85 L 140.36 78.25 L 140.07 78.65 L 139.78 79.06 L 139.49 79.46 L 139.21 79.86 L 138.92 80.26 L 138.64 80.66 L 138.35 81.07 L 138.07 81.47 L 137.78 81.87 L 137.50 82.27 L 137.21 82.67 L 136.93 83.07 L 136.65 83.47 L 136.36 83.87 L 136.08 84.27 L 135.80 84.67 L 135.51 85.08 L 135.23 85.48 L 134.95 85.88 L 134.66 86.28 L 134.38 86.68 L 134.10 87.08 L 133.81 87.48 L 133.53 87.88 L 133.24 88.29 L 132.96 88.69 L 132.67 89.09 L 132.39 89.49 L 132.10 89.89 L 131.82 90.29 L 131.53 90.70 L 131.25 91.10 L 130.96 91.50 L 130.68 91.90 L 130.39 92.30 L 130.11 92.70 L 129.82 93.11 L 129.53 93.51 L 129.25 93.91 L 128.96 94.31 L 128.67 94.72 L 128.39 95.12 L 128.10 95.52 L 127.81 95.92 L 127.53 96.32 L 127.24 96.73 L 126.95 97.13 L 126.67 97.53 L 126.38 97.93 L 126.09 98.34 L 125.80 98.74 L 125.52 99.14 L 125.23 99.54 L 124.94 99.95 L 124.65 100.35 L 124.36 100.75 L 124.08 101.15 L 123.79 101.55 L 123.50 101.96 L 123.21 102.36 L 122.92 102.76 L 122.64 103.16 L 122.35 103.57 L 122.06 103.97 L 121.77 104.37 L 121.48 104.77 L 121.19 105.18 L 120.91 105.58 L 120.62 105.98 L 120.33 106.38 L 120.04 106.79 L 119.75 107.19 L 119.47 107.59 L 119.18 107.99 L 118.89 108.39 L 118.60 108.80 L 118.31 109.20 L 118.03 109.60 L 117.74 110.00 L 117.45 110.41 L 117.16 110.81 L 116.88 111.21 L 116.59 111.61 L 116.30 112.02 L 116.02 112.42 L 115.73 112.82 L 115.45 113.23 L 115.16 113.63 L 114.88 114.03 L 114.59 114.43 L 114.31 114.84 L 114.02 115.24 L 113.74 115.64 L 113.45 116.04 L 113.17 116.45 L 112.89 116.85 L 112.60 117.25 L 112.32 117.66 L 112.04 118.06 L 111.76 118.46 L 111.47 118.87 L 111.19 119.27 L 110.91 119.67 L 110.63 120.08 L 110.35 120.48 L 110.07 120.88 L 109.78 121.28 L 109.50 121.68 L 109.22 122.09 L 108.93 122.49 L 108.65 122.89 L 108.36 123.29 L 108.07 123.69 L 107.78 124.09 L 107.49 124.48 L 107.20 124.88 L 106.91 125.28 L 106.61 125.67 L 106.31 126.07 L 106.01 126.46 L 105.71 126.85 L 105.40 127.25 L 105.10 127.64 L 104.80 128.03 L 104.50 128.42 L 104.21 128.82 L 103.92 129.22 L 103.63 129.62 L 103.36 130.02 L 103.09 130.43 L 102.83 130.84 L 102.59 131.25 L 102.35 131.67 L 102.13 132.10 L 101.93 132.53 L 101.74 132.97 L 101.57 133.42 L 101.41 133.87 L 101.28 134.33 L 101.17 134.80 L 101.08 135.28 L 101.00 135.77 L 100.95 136.27 L 100.91 136.77 L 100.89 137.28 L 100.88 137.79 L 100.88 138.31 L 100.89 138.83 L 100.91 139.35 L 100.94 139.88 L 100.96 140.41 L 101.00 140.93 L 101.03 141.46 L 101.06 141.98 L 101.09 142.51 L 101.11 143.03 L 101.13 143.55 L 101.14 144.06 L 101.14 144.57 L 101.15 145.08 L 101.14 145.58 L 101.14 146.09 L 101.13 146.59 L 101.12 147.09 L 101.10 147.59 L 101.09 148.09 L 101.07 148.59 L 101.06 149.09 L 101.04 149.59 L 101.03 150.10 L 101.02 150.60 L 101.01 151.11 L 101.00 151.62 L 101.00 152.13 L 101.00 152.65 L 101.01 153.17 L 101.01 153.69 L 101.02 154.22 L 101.02 154.76 L 101.03 155.30 L 101.04 155.84 L 101.04 156.39 L 101.06 156.92 L 101.08 157.43 L 101.12 157.89 L 101.18 158.28 L 101.27 158.60 L 101.38 158.83 L 101.53 158.95 L 101.72 158.94 L 101.95 158.83 L 102.20 158.62 L 102.48 158.32 L 102.78 157.96 L 103.10 157.55 L 103.42 157.09 L 103.75 156.61 L 104.09 156.13 L 104.42 155.64 L 104.74 155.18 L 105.05 154.73 L 105.35 154.30 L 105.65 153.88 L 105.94 153.47 L 106.23 153.07 L 106.51 152.68 L 106.79 152.29 L 107.07 151.91 L 107.35 151.53 L 107.63 151.14 L 107.91 150.76 L 108.19 150.37 L 108.47 149.98 L 108.75 149.59 L 109.03 149.20 L 109.31 148.80 L 109.60 148.41 L 109.88 148.01 L 110.16 147.61 L 110.45 147.21 L 110.73 146.81 L 111.02 146.41 L 111.30 146.01 L 111.59 145.61 L 111.88 145.20 L 112.16 144.80 L 112.45 144.39 L 112.74 143.99 L 113.02 143.58 L 113.31 143.18 L 113.60 142.77 L 113.89 142.36 L 114.18 141.95 L 114.47 141.55 L 114.75 141.14 L 115.04 140.73 L 115.33 140.32 L 115.62 139.92 L 115.91 139.51 L 116.20 139.10 L 116.49 138.70 L 116.78 138.29 L 117.07 137.89 L 117.35 137.49 L 117.64 137.08 L 117.93 136.68 L 118.22 136.28 L 118.51 135.88 L 118.80 135.48 L 119.08 135.08 L 119.37 134.68 L 119.66 134.29 L 119.95 133.89 L 120.23 133.50 L 120.52 133.10 L 120.81 132.71 L 121.09 132.32 L 121.38 131.92 L 121.66 131.53 L 121.95 131.14 L 122.23 130.74 L 122.52 130.35 L 122.80 129.95 L 123.09 129.56 L 123.37 129.16 L 123.66 128.76 L 123.94 128.36 L 124.22 127.96 L 124.51 127.56 L 124.79 127.15 L 125.07 126.75 L 125.35 126.34 L 125.64 125.93 L 125.92 125.52 L 126.20 125.11 L 126.49 124.69 L 126.77 124.28 L 127.05 123.87 L 127.34 123.46 L 127.63 123.05 L 127.91 122.64 L 128.20 122.23 L 128.49 121.82 L 128.78 121.42 L 129.07 121.02 L 129.37 120.62 L 129.67 120.22 L 129.97 119.83 L 130.27 119.44 L 130.57 119.06 L 130.87 118.68 L 131.19 118.31 L 131.51 117.97 L 131.85 117.66 L 132.21 117.42 L 132.60 117.24 L 133.02 117.15 L 133.47 117.11 L 133.94 117.12 L 134.43 117.15 L 134.93 117.18 L 135.44 117.20 L 135.96 117.21 L 136.48 117.22 L 137.01 117.23 L 137.54 117.23 L 138.07 117.24 L 138.60 117.24 L 139.14 117.25 L 139.67 117.25 L 140.20 117.26 L 140.73 117.27 L 141.26 117.28 L 141.79 117.29 L 142.32 117.31 L 142.85 117.32 L 143.38 117.33 L 143.90 117.34 L 144.43 117.35 L 144.96 117.36 L 145.48 117.37 L 146.01 117.38 L 146.54 117.39 L 147.06 117.40 L 147.59 117.40 L 148.11 117.40 L 148.64 117.40 L 149.16 117.40 L 149.68 117.39 L 150.21 117.38 L 150.73 117.37 L 151.25 117.35 L 151.77 117.33 L 152.28 117.30 L 152.80 117.27 L 153.31 117.24 L 153.82 117.19 L 154.33 117.15 L 154.84 117.09 L 155.34 117.03 L 155.84 116.97 L 156.34 116.89 L 156.83 116.81 L 157.32 116.72 L 157.81 116.62 L 158.29 116.52 L 158.77 116.40 L 159.25 116.28 L 159.72 116.14 L 160.19 116.00 L 160.65 115.85 L 161.11 115.68 L 161.56 115.51 L 162.01 115.32 L 162.45 115.13 L 162.89 114.92 L 163.32 114.70 L 163.74 114.47 L 164.16 114.23 L 164.58 113.97 L 164.98 113.70 L 165.39 113.42 L 165.78 113.13 L 166.17 112.83 L 166.56 112.52 L 166.94 112.20 L 167.31 111.87 L 167.68 111.54 L 168.05 111.19 L 168.41 110.84 L 168.76 110.49 L 169.11 110.12 L 169.45 109.76 L 169.79 109.38 L 170.13 109.01 L 170.46 108.63 L 170.78 108.24 L 171.10 107.86 L 171.42 107.47 L 171.73 107.08 L 172.04 106.69 L 172.34 106.30 L 172.64 105.91 L 172.94 105.51 L 173.23 105.12 L 173.52 104.72 L 173.81 104.33 L 174.09 103.93 L 174.38 103.53 L 174.66 103.13 L 174.94 102.73 L 175.22 102.33 L 175.50 101.93 L 175.78 101.53 L 176.06 101.13 L 176.34 100.72 L 176.62 100.32 L 176.89 99.92 L 177.17 99.51 L 177.46 99.11 L 177.74 98.71 L 178.02 98.30 L 178.30 97.90 L 178.59 97.50 L 178.88 97.09 L 179.16 96.69 L 179.45 96.29 L 179.74 95.88 L 180.03 95.48 L 180.32 95.07 L 180.60 94.67 L 180.90 94.27 L 181.19 93.86 L 181.48 93.46 L 181.77 93.05 L 182.06 92.65 L 182.35 92.25 L 182.64 91.84 L 182.93 91.44 L 183.23 91.04 L 183.52 90.63 L 183.81 90.23 L 184.10 89.83 L 184.39 89.43 L 184.68 89.02 L 184.97 88.62 L 185.26 88.22 L 185.55 87.82 L 185.84 87.41 L 186.13 87.01 L 186.42 86.61 L 186.71 86.21 L 186.99 85.81 L 187.28 85.41 L 187.56 85.01 L 187.85 84.61 L 188.13 84.21 L 188.41 83.81 L 188.69 83.41 L 188.97 83.01 L 189.25 82.61 L 189.53 82.22 L 189.80 81.82 L 190.08 81.42 L 190.36 81.02 L 190.63 80.63 L 190.91 80.23 L 191.19 79.83 L 191.47 79.43 L 191.75 79.04 L 192.03 78.64 L 192.31 78.24 L 192.59 77.84 L 192.88 77.44 L 193.17 77.04 L 193.46 76.64 L 193.76 76.24 L 194.06 75.84 L 194.36 75.44 L 194.67 75.04 L 194.98 74.63 L 195.29 74.23 L 195.61 73.82 L 195.92 73.41 L 196.24 73.00 L 196.55 72.58 L 196.86 72.16 L 197.16 71.73 L 197.46 71.30 L 197.74 70.86 L 198.02 70.41 L 198.27 69.96 L 198.49 69.52 L 198.65 69.10 L 198.71 68.73 L 198.67 68.40 L 198.52 68.14 L 198.27 67.93 L 197.95 67.76 Z M 174.79 70.10 L 175.25 70.21 L 175.64 70.38 L 175.88 70.60 L 175.91 70.90 L 175.70 71.25 L 175.30 71.65 L 174.82 72.07 L 174.33 72.51 L 173.90 72.95 L 173.53 73.38 L 173.20 73.81 L 172.92 74.24 L 172.66 74.67 L 172.41 75.09 L 172.17 75.52 L 171.93 75.94 L 171.67 76.37 L 171.41 76.79 L 171.13 77.22 L 170.84 77.65 L 170.55 78.07 L 170.25 78.50 L 169.94 78.93 L 169.63 79.36 L 169.31 79.79 L 168.99 80.21 L 168.67 80.64 L 168.35 81.07 L 168.03 81.50 L 167.71 81.92 L 167.39 82.35 L 167.08 82.78 L 166.77 83.20 L 166.46 83.63 L 166.15 84.06 L 165.85 84.48 L 165.56 84.91 L 165.26 85.33 L 164.97 85.75 L 164.67 86.18 L 164.38 86.60 L 164.09 87.02 L 163.80 87.44 L 163.51 87.86 L 163.22 88.28 L 162.93 88.70 L 162.64 89.12 L 162.34 89.54 L 162.05 89.95 L 161.75 90.37 L 161.45 90.79 L 161.15 91.20 L 160.85 91.62 L 160.55 92.03 L 160.25 92.45 L 159.94 92.87 L 159.64 93.28 L 159.33 93.70 L 159.03 94.12 L 158.72 94.53 L 158.41 94.95 L 158.11 95.37 L 157.80 95.80 L 157.50 96.22 L 157.19 96.64 L 156.89 97.07 L 156.58 97.50 L 156.28 97.92 L 155.97 98.35 L 155.67 98.78 L 155.37 99.22 L 155.07 99.65 L 154.76 100.08 L 154.46 100.51 L 154.16 100.95 L 153.86 101.38 L 153.56 101.82 L 153.26 102.25 L 152.96 102.69 L 152.66 103.13 L 152.36 103.56 L 152.06 104.00 L 151.76 104.43 L 151.46 104.86 L 151.16 105.29 L 150.85 105.72 L 150.54 106.14 L 150.22 106.55 L 149.90 106.96 L 149.57 107.36 L 149.24 107.76 L 148.90 108.14 L 148.55 108.52 L 148.19 108.88 L 147.82 109.23 L 147.45 109.58 L 147.06 109.91 L 146.66 110.22 L 146.25 110.53 L 145.83 110.81 L 145.40 111.09 L 144.96 111.35 L 144.52 111.59 L 144.06 111.82 L 143.59 112.03 L 143.11 112.22 L 142.63 112.39 L 142.13 112.55 L 141.63 112.68 L 141.12 112.80 L 140.60 112.90 L 140.07 112.97 L 139.53 113.04 L 139.00 113.10 L 138.46 113.16 L 137.93 113.23 L 137.41 113.31 L 136.89 113.40 L 136.39 113.52 L 135.90 113.67 L 135.43 113.86 L 134.99 114.08 L 134.56 114.35 L 134.16 114.68 L 133.79 115.06 L 133.47 115.41 L 133.23 115.56 L 133.11 115.44 L 133.19 115.15 L 133.43 114.75 L 133.78 114.28 L 134.18 113.79 L 134.57 113.31 L 134.94 112.85 L 135.28 112.41 L 135.61 111.98 L 135.93 111.56 L 136.23 111.16 L 136.53 110.76 L 136.82 110.35 L 137.11 109.95 L 137.40 109.54 L 137.69 109.13 L 137.99 108.71 L 138.28 108.29 L 138.58 107.87 L 138.88 107.44 L 139.17 107.01 L 139.47 106.58 L 139.77 106.15 L 140.07 105.72 L 140.38 105.28 L 140.68 104.85 L 140.98 104.41 L 141.29 103.98 L 141.59 103.55 L 141.90 103.12 L 142.20 102.69 L 142.51 102.26 L 142.82 101.83 L 143.12 101.40 L 143.43 100.98 L 143.74 100.55 L 144.05 100.13 L 144.35 99.70 L 144.66 99.28 L 144.96 98.86 L 145.27 98.44 L 145.57 98.02 L 145.88 97.59 L 146.18 97.17 L 146.48 96.75 L 146.78 96.33 L 147.08 95.91 L 147.38 95.49 L 147.68 95.07 L 147.97 94.65 L 148.27 94.23 L 148.57 93.80 L 148.86 93.38 L 149.16 92.96 L 149.46 92.54 L 149.75 92.12 L 150.05 91.70 L 150.36 91.28 L 150.66 90.86 L 150.96 90.43 L 151.27 90.01 L 151.58 89.59 L 151.89 89.17 L 152.21 88.75 L 152.52 88.33 L 152.84 87.91 L 153.15 87.49 L 153.47 87.06 L 153.78 86.64 L 154.10 86.21 L 154.41 85.78 L 154.72 85.35 L 155.02 84.92 L 155.33 84.49 L 155.63 84.05 L 155.92 83.61 L 156.21 83.17 L 156.49 82.72 L 156.77 82.27 L 157.05 81.82 L 157.33 81.38 L 157.60 80.94 L 157.89 80.51 L 158.18 80.09 L 158.49 79.68 L 158.80 79.29 L 159.13 78.91 L 159.47 78.55 L 159.82 78.19 L 160.18 77.83 L 160.54 77.47 L 160.90 77.10 L 161.26 76.72 L 161.62 76.33 L 161.97 75.93 L 162.33 75.52 L 162.69 75.11 L 163.06 74.72 L 163.43 74.34 L 163.82 73.99 L 164.22 73.67 L 164.63 73.39 L 165.06 73.15 L 165.51 72.94 L 165.97 72.76 L 166.44 72.59 L 166.91 72.43 L 167.40 72.27 L 167.89 72.09 L 168.38 71.90 L 168.88 71.70 L 169.37 71.48 L 169.87 71.26 L 170.37 71.05 L 170.87 70.84 L 171.36 70.64 L 171.86 70.47 L 172.35 70.31 L 172.85 70.19 L 173.34 70.10 L 173.82 70.06 L 174.31 70.05 Z"/>
    <path d="M 1.58 67.61 L 1.36 67.86 L 1.24 68.18 L 1.20 68.55 L 1.24 68.95 L 1.36 69.36 L 1.54 69.79 L 1.78 70.22 L 2.06 70.65 L 2.36 71.08 L 2.67 71.50 L 2.98 71.92 L 3.29 72.34 L 3.59 72.75 L 3.89 73.16 L 4.19 73.56 L 4.49 73.97 L 4.79 74.37 L 5.08 74.77 L 5.38 75.16 L 5.67 75.56 L 5.96 75.96 L 6.25 76.36 L 6.54 76.76 L 6.82 77.16 L 7.11 77.55 L 7.40 77.95 L 7.68 78.35 L 7.97 78.75 L 8.25 79.15 L 8.53 79.55 L 8.81 79.95 L 9.10 80.35 L 9.38 80.74 L 9.66 81.14 L 9.94 81.54 L 10.22 81.94 L 10.51 82.34 L 10.79 82.74 L 11.07 83.14 L 11.35 83.54 L 11.64 83.94 L 11.92 84.34 L 12.21 84.75 L 12.49 85.15 L 12.78 85.55 L 13.07 85.95 L 13.35 86.35 L 13.64 86.75 L 13.93 87.15 L 14.22 87.55 L 14.50 87.96 L 14.79 88.36 L 15.08 88.76 L 15.37 89.16 L 15.66 89.56 L 15.95 89.97 L 16.24 90.37 L 16.53 90.77 L 16.82 91.17 L 17.11 91.58 L 17.40 91.98 L 17.69 92.38 L 17.98 92.78 L 18.27 93.19 L 18.56 93.59 L 18.85 93.99 L 19.13 94.39 L 19.42 94.79 L 19.71 95.20 L 20.00 95.60 L 20.28 96.00 L 20.57 96.40 L 20.86 96.81 L 21.14 97.21 L 21.43 97.61 L 21.71 98.01 L 21.99 98.41 L 22.28 98.81 L 22.56 99.22 L 22.84 99.62 L 23.12 100.02 L 23.40 100.42 L 23.68 100.82 L 23.96 101.22 L 24.23 101.62 L 24.51 102.02 L 24.79 102.42 L 25.07 102.82 L 25.35 103.22 L 25.64 103.61 L 25.92 104.01 L 26.21 104.41 L 26.49 104.80 L 26.78 105.20 L 27.08 105.59 L 27.37 105.98 L 27.67 106.37 L 27.97 106.76 L 28.28 107.15 L 28.59 107.53 L 28.90 107.92 L 29.22 108.30 L 29.55 108.68 L 29.88 109.06 L 30.21 109.43 L 30.55 109.80 L 30.89 110.17 L 31.24 110.53 L 31.59 110.89 L 31.95 111.24 L 32.32 111.58 L 32.68 111.92 L 33.06 112.25 L 33.44 112.57 L 33.82 112.88 L 34.21 113.19 L 34.61 113.48 L 35.01 113.76 L 35.42 114.03 L 35.83 114.29 L 36.25 114.53 L 36.68 114.77 L 37.11 114.99 L 37.55 115.19 L 37.99 115.39 L 38.44 115.57 L 38.89 115.74 L 39.35 115.90 L 39.81 116.05 L 40.28 116.18 L 40.75 116.31 L 41.23 116.43 L 41.71 116.54 L 42.20 116.64 L 42.68 116.73 L 43.18 116.81 L 43.67 116.88 L 44.17 116.95 L 44.67 117.01 L 45.18 117.07 L 45.68 117.11 L 46.19 117.16 L 46.70 117.19 L 47.22 117.23 L 47.73 117.25 L 48.25 117.28 L 48.77 117.30 L 49.29 117.32 L 49.81 117.33 L 50.33 117.34 L 50.85 117.35 L 51.38 117.36 L 51.90 117.37 L 52.43 117.38 L 52.95 117.39 L 53.47 117.39 L 54.00 117.40 L 54.52 117.41 L 55.04 117.42 L 55.57 117.42 L 56.09 117.43 L 56.62 117.43 L 57.14 117.43 L 57.67 117.42 L 58.20 117.41 L 58.73 117.40 L 59.26 117.38 L 59.79 117.36 L 60.32 117.33 L 60.86 117.29 L 61.40 117.24 L 61.94 117.19 L 62.48 117.13 L 63.03 117.06 L 63.56 117.00 L 64.09 116.96 L 64.61 116.93 L 65.12 116.92 L 65.60 116.95 L 66.07 117.01 L 66.51 117.12 L 66.93 117.27 L 67.32 117.46 L 67.70 117.68 L 68.06 117.93 L 68.40 118.21 L 68.74 118.51 L 69.06 118.83 L 69.38 119.17 L 69.68 119.52 L 69.99 119.88 L 70.29 120.25 L 70.59 120.62 L 70.88 121.00 L 71.18 121.39 L 71.47 121.78 L 71.76 122.17 L 72.05 122.57 L 72.33 122.97 L 72.62 123.38 L 72.90 123.79 L 73.18 124.20 L 73.46 124.61 L 73.74 125.03 L 74.02 125.44 L 74.30 125.86 L 74.58 126.28 L 74.86 126.69 L 75.14 127.10 L 75.42 127.52 L 75.70 127.93 L 75.98 128.33 L 76.26 128.74 L 76.54 129.14 L 76.83 129.54 L 77.11 129.94 L 77.39 130.34 L 77.68 130.73 L 77.96 131.13 L 78.25 131.52 L 78.53 131.91 L 78.82 132.30 L 79.10 132.69 L 79.39 133.09 L 79.67 133.48 L 79.96 133.87 L 80.25 134.26 L 80.53 134.65 L 80.82 135.04 L 81.11 135.43 L 81.39 135.82 L 81.68 136.22 L 81.97 136.61 L 82.25 137.01 L 82.54 137.41 L 82.83 137.81 L 83.11 138.20 L 83.40 138.60 L 83.69 139.00 L 83.97 139.41 L 84.26 139.81 L 84.55 140.21 L 84.83 140.61 L 85.12 141.01 L 85.40 141.42 L 85.69 141.82 L 85.98 142.23 L 86.26 142.63 L 86.55 143.04 L 86.83 143.44 L 87.12 143.84 L 87.41 144.25 L 87.69 144.65 L 87.98 145.06 L 88.26 145.46 L 88.55 145.87 L 88.84 146.27 L 89.12 146.68 L 89.41 147.08 L 89.69 147.48 L 89.98 147.89 L 90.26 148.29 L 90.55 148.69 L 90.84 149.09 L 91.12 149.49 L 91.41 149.89 L 91.69 150.29 L 91.98 150.69 L 92.27 151.09 L 92.55 151.48 L 92.84 151.88 L 93.12 152.27 L 93.41 152.67 L 93.69 153.06 L 93.98 153.45 L 94.27 153.85 L 94.56 154.24 L 94.84 154.64 L 95.13 155.03 L 95.42 155.43 L 95.72 155.84 L 96.01 156.24 L 96.30 156.65 L 96.60 157.07 L 96.91 157.50 L 97.23 157.95 L 97.56 158.42 L 97.91 158.91 L 98.23 159.30 L 98.48 159.42 L 98.62 159.19 L 98.70 158.79 L 98.76 158.34 L 98.81 157.89 L 98.86 157.41 L 98.89 156.93 L 98.92 156.43 L 98.94 155.92 L 98.96 155.41 L 98.97 154.88 L 98.97 154.35 L 98.97 153.82 L 98.96 153.28 L 98.96 152.74 L 98.95 152.20 L 98.94 151.65 L 98.92 151.12 L 98.91 150.58 L 98.90 150.05 L 98.89 149.52 L 98.88 148.99 L 98.87 148.47 L 98.86 147.95 L 98.85 147.43 L 98.85 146.91 L 98.84 146.40 L 98.84 145.88 L 98.84 145.36 L 98.85 144.85 L 98.85 144.33 L 98.86 143.81 L 98.87 143.29 L 98.88 142.76 L 98.90 142.23 L 98.92 141.70 L 98.94 141.17 L 98.96 140.63 L 98.98 140.10 L 99.00 139.56 L 99.01 139.03 L 99.02 138.49 L 99.02 137.96 L 99.01 137.44 L 98.98 136.91 L 98.95 136.40 L 98.90 135.89 L 98.84 135.38 L 98.76 134.89 L 98.66 134.40 L 98.54 133.92 L 98.40 133.45 L 98.24 132.99 L 98.07 132.54 L 97.87 132.10 L 97.66 131.67 L 97.43 131.24 L 97.19 130.82 L 96.94 130.41 L 96.68 130.00 L 96.40 129.60 L 96.12 129.20 L 95.83 128.80 L 95.53 128.41 L 95.23 128.02 L 94.92 127.63 L 94.61 127.25 L 94.30 126.86 L 93.99 126.47 L 93.68 126.08 L 93.37 125.70 L 93.07 125.31 L 92.76 124.91 L 92.46 124.52 L 92.17 124.12 L 91.87 123.73 L 91.58 123.33 L 91.29 122.93 L 91.00 122.53 L 90.71 122.13 L 90.43 121.72 L 90.15 121.32 L 89.87 120.92 L 89.59 120.51 L 89.31 120.11 L 89.03 119.70 L 88.75 119.29 L 88.47 118.89 L 88.19 118.48 L 87.91 118.08 L 87.63 117.67 L 87.36 117.27 L 87.08 116.86 L 86.80 116.46 L 86.52 116.05 L 86.23 115.65 L 85.95 115.25 L 85.67 114.84 L 85.39 114.44 L 85.11 114.04 L 84.82 113.63 L 84.54 113.23 L 84.26 112.83 L 83.97 112.43 L 83.69 112.03 L 83.40 111.63 L 83.12 111.23 L 82.83 110.83 L 82.55 110.43 L 82.26 110.02 L 81.98 109.62 L 81.69 109.22 L 81.40 108.83 L 81.12 108.43 L 80.83 108.03 L 80.54 107.63 L 80.26 107.23 L 79.97 106.83 L 79.68 106.43 L 79.39 106.03 L 79.11 105.63 L 78.82 105.23 L 78.53 104.83 L 78.24 104.43 L 77.95 104.03 L 77.67 103.63 L 77.38 103.24 L 77.09 102.84 L 76.80 102.44 L 76.52 102.04 L 76.23 101.64 L 75.94 101.24 L 75.65 100.84 L 75.37 100.44 L 75.08 100.04 L 74.79 99.64 L 74.51 99.24 L 74.22 98.84 L 73.93 98.44 L 73.65 98.04 L 73.36 97.64 L 73.07 97.24 L 72.79 96.84 L 72.50 96.44 L 72.21 96.04 L 71.93 95.64 L 71.64 95.24 L 71.36 94.84 L 71.07 94.44 L 70.79 94.04 L 70.50 93.64 L 70.21 93.24 L 69.93 92.84 L 69.65 92.44 L 69.36 92.04 L 69.08 91.64 L 68.79 91.23 L 68.51 90.83 L 68.22 90.43 L 67.94 90.03 L 67.66 89.63 L 67.37 89.23 L 67.09 88.83 L 66.81 88.43 L 66.52 88.03 L 66.24 87.63 L 65.96 87.23 L 65.67 86.83 L 65.39 86.43 L 65.11 86.03 L 64.83 85.63 L 64.55 85.23 L 64.27 84.83 L 63.98 84.43 L 63.70 84.03 L 63.42 83.62 L 63.14 83.22 L 62.86 82.82 L 62.58 82.42 L 62.30 82.02 L 62.01 81.62 L 61.73 81.22 L 61.45 80.83 L 61.16 80.43 L 60.88 80.03 L 60.59 79.63 L 60.31 79.23 L 60.02 78.83 L 59.73 78.43 L 59.45 78.03 L 59.16 77.63 L 58.86 77.23 L 58.57 76.83 L 58.28 76.43 L 57.98 76.04 L 57.68 75.64 L 57.38 75.25 L 57.08 74.86 L 56.77 74.47 L 56.46 74.09 L 56.15 73.71 L 55.83 73.34 L 55.50 72.97 L 55.17 72.61 L 54.83 72.26 L 54.49 71.92 L 54.14 71.59 L 53.78 71.27 L 53.42 70.96 L 53.04 70.66 L 52.66 70.38 L 52.27 70.11 L 51.87 69.85 L 51.46 69.60 L 51.04 69.37 L 50.61 69.16 L 50.17 68.96 L 49.72 68.77 L 49.27 68.60 L 48.81 68.44 L 48.34 68.29 L 47.86 68.15 L 47.38 68.03 L 46.89 67.91 L 46.40 67.81 L 45.90 67.72 L 45.40 67.64 L 44.90 67.56 L 44.39 67.50 L 43.88 67.45 L 43.36 67.40 L 42.85 67.37 L 42.33 67.34 L 41.81 67.32 L 41.29 67.30 L 40.76 67.29 L 40.24 67.29 L 39.72 67.29 L 39.19 67.29 L 38.66 67.30 L 38.14 67.31 L 37.61 67.32 L 37.08 67.34 L 36.55 67.35 L 36.03 67.37 L 35.50 67.38 L 34.97 67.40 L 34.45 67.41 L 33.92 67.42 L 33.39 67.43 L 32.87 67.44 L 32.34 67.44 L 31.82 67.45 L 31.29 67.45 L 30.77 67.45 L 30.25 67.45 L 29.72 67.45 L 29.20 67.45 L 28.68 67.45 L 28.15 67.45 L 27.63 67.44 L 27.11 67.44 L 26.58 67.44 L 26.06 67.43 L 25.53 67.43 L 25.01 67.42 L 24.49 67.42 L 23.96 67.41 L 23.44 67.40 L 22.91 67.40 L 22.39 67.39 L 21.86 67.39 L 21.34 67.38 L 20.81 67.38 L 20.28 67.37 L 19.75 67.37 L 19.23 67.37 L 18.70 67.36 L 18.17 67.36 L 17.64 67.36 L 17.11 67.36 L 16.58 67.36 L 16.05 67.36 L 15.52 67.37 L 14.99 67.37 L 14.46 67.37 L 13.93 67.38 L 13.40 67.38 L 12.88 67.39 L 12.36 67.40 L 11.84 67.40 L 11.32 67.41 L 10.81 67.42 L 10.29 67.43 L 9.79 67.44 L 9.28 67.45 L 8.78 67.46 L 8.27 67.47 L 7.75 67.47 L 7.23 67.47 L 6.70 67.45 L 6.15 67.43 L 5.58 67.39 L 4.99 67.35 L 4.40 67.30 L 3.82 67.26 L 3.27 67.24 L 2.75 67.25 L 2.29 67.31 L 1.89 67.43 Z M 24.61 70.06 L 24.98 69.93 L 25.42 69.91 L 25.91 69.97 L 26.43 70.09 L 26.97 70.26 L 27.52 70.44 L 28.06 70.62 L 28.60 70.79 L 29.11 70.95 L 29.62 71.09 L 30.11 71.23 L 30.59 71.38 L 31.07 71.53 L 31.54 71.69 L 32.00 71.86 L 32.46 72.05 L 32.92 72.26 L 33.37 72.48 L 33.82 72.72 L 34.26 72.97 L 34.70 73.23 L 35.13 73.51 L 35.56 73.80 L 35.98 74.10 L 36.39 74.41 L 36.79 74.73 L 37.19 75.06 L 37.58 75.40 L 37.97 75.75 L 38.34 76.10 L 38.71 76.47 L 39.07 76.84 L 39.42 77.22 L 39.76 77.61 L 40.09 78.00 L 40.42 78.40 L 40.73 78.80 L 41.04 79.21 L 41.34 79.63 L 41.63 80.05 L 41.92 80.47 L 42.21 80.90 L 42.50 81.33 L 42.78 81.76 L 43.07 82.19 L 43.36 82.62 L 43.66 83.06 L 43.96 83.49 L 44.26 83.92 L 44.57 84.35 L 44.88 84.78 L 45.18 85.21 L 45.49 85.64 L 45.81 86.07 L 46.12 86.50 L 46.43 86.93 L 46.74 87.36 L 47.06 87.79 L 47.37 88.22 L 47.68 88.65 L 47.99 89.07 L 48.30 89.50 L 48.61 89.92 L 48.91 90.35 L 49.22 90.77 L 49.52 91.19 L 49.82 91.61 L 50.12 92.04 L 50.42 92.46 L 50.72 92.88 L 51.02 93.30 L 51.32 93.72 L 51.62 94.14 L 51.91 94.56 L 52.21 94.98 L 52.51 95.40 L 52.81 95.82 L 53.11 96.24 L 53.41 96.66 L 53.71 97.08 L 54.01 97.50 L 54.31 97.93 L 54.61 98.35 L 54.91 98.77 L 55.22 99.19 L 55.52 99.62 L 55.82 100.04 L 56.13 100.47 L 56.44 100.89 L 56.74 101.32 L 57.05 101.74 L 57.36 102.17 L 57.66 102.60 L 57.97 103.03 L 58.28 103.46 L 58.59 103.89 L 58.90 104.31 L 59.21 104.74 L 59.52 105.17 L 59.83 105.61 L 60.13 106.03 L 60.44 106.46 L 60.74 106.89 L 61.04 107.32 L 61.34 107.75 L 61.63 108.18 L 61.92 108.61 L 62.21 109.03 L 62.49 109.46 L 62.77 109.88 L 63.04 110.30 L 63.33 110.72 L 63.62 111.14 L 63.92 111.56 L 64.24 111.98 L 64.59 112.40 L 64.97 112.82 L 65.38 113.24 L 65.81 113.65 L 66.21 114.07 L 66.52 114.48 L 66.70 114.87 L 66.74 115.22 L 66.65 115.45 L 66.45 115.50 L 66.17 115.33 L 65.82 115.00 L 65.43 114.60 L 65.01 114.21 L 64.57 113.88 L 64.12 113.62 L 63.65 113.43 L 63.17 113.29 L 62.66 113.20 L 62.14 113.14 L 61.60 113.10 L 61.06 113.07 L 60.52 113.04 L 59.98 113.00 L 59.45 112.94 L 58.92 112.85 L 58.41 112.74 L 57.90 112.61 L 57.41 112.46 L 56.92 112.29 L 56.44 112.10 L 55.97 111.89 L 55.52 111.66 L 55.07 111.42 L 54.63 111.16 L 54.20 110.88 L 53.78 110.59 L 53.38 110.28 L 52.98 109.96 L 52.59 109.63 L 52.22 109.28 L 51.85 108.93 L 51.49 108.56 L 51.14 108.19 L 50.80 107.80 L 50.47 107.41 L 50.14 107.01 L 49.82 106.61 L 49.50 106.20 L 49.18 105.78 L 48.87 105.36 L 48.57 104.94 L 48.26 104.51 L 47.96 104.08 L 47.66 103.66 L 47.36 103.23 L 47.06 102.80 L 46.77 102.37 L 46.47 101.94 L 46.17 101.51 L 45.87 101.09 L 45.58 100.66 L 45.28 100.23 L 44.98 99.80 L 44.68 99.37 L 44.38 98.94 L 44.08 98.52 L 43.78 98.09 L 43.48 97.66 L 43.18 97.24 L 42.87 96.81 L 42.57 96.38 L 42.26 95.96 L 41.95 95.53 L 41.65 95.11 L 41.34 94.69 L 41.03 94.26 L 40.72 93.84 L 40.41 93.42 L 40.10 92.99 L 39.79 92.57 L 39.48 92.15 L 39.18 91.73 L 38.87 91.30 L 38.57 90.88 L 38.27 90.46 L 37.97 90.04 L 37.67 89.62 L 37.37 89.19 L 37.08 88.77 L 36.78 88.35 L 36.49 87.93 L 36.20 87.50 L 35.90 87.08 L 35.61 86.66 L 35.32 86.24 L 35.02 85.81 L 34.72 85.39 L 34.42 84.96 L 34.12 84.54 L 33.82 84.12 L 33.51 83.69 L 33.20 83.27 L 32.89 82.84 L 32.57 82.42 L 32.26 81.99 L 31.94 81.57 L 31.62 81.14 L 31.30 80.71 L 30.99 80.29 L 30.67 79.86 L 30.36 79.43 L 30.05 79.00 L 29.75 78.57 L 29.45 78.14 L 29.16 77.71 L 28.88 77.28 L 28.60 76.84 L 28.33 76.41 L 28.07 75.97 L 27.82 75.54 L 27.56 75.11 L 27.29 74.67 L 27.00 74.25 L 26.68 73.82 L 26.34 73.40 L 25.95 72.99 L 25.53 72.59 L 25.12 72.19 L 24.73 71.79 L 24.42 71.39 L 24.21 70.99 L 24.17 70.62 L 24.31 70.29 Z"/>
    <path d="M 101.69 46.15 L 101.38 46.16 L 101.06 46.18 L 100.74 46.22 L 100.42 46.26 L 100.10 46.31 L 99.78 46.37 L 99.46 46.43 L 99.15 46.51 L 98.83 46.59 L 98.52 46.68 L 98.21 46.78 L 97.90 46.88 L 97.59 46.99 L 97.29 47.11 L 96.99 47.24 L 96.70 47.37 L 96.41 47.51 L 96.13 47.65 L 95.85 47.80 L 95.58 47.96 L 95.31 48.12 L 95.05 48.28 L 94.79 48.45 L 94.54 48.63 L 94.28 48.81 L 94.04 48.99 L 93.79 49.18 L 93.55 49.37 L 93.31 49.56 L 93.08 49.76 L 92.84 49.96 L 92.61 50.16 L 92.38 50.36 L 92.15 50.57 L 91.92 50.78 L 91.69 50.99 L 91.47 51.20 L 91.24 51.41 L 91.01 51.62 L 90.78 51.83 L 90.55 52.04 L 90.32 52.25 L 90.09 52.46 L 89.87 52.68 L 89.64 52.89 L 89.41 53.10 L 89.18 53.32 L 88.95 53.53 L 88.73 53.75 L 88.50 53.97 L 88.27 54.18 L 88.05 54.40 L 87.83 54.62 L 87.60 54.83 L 87.38 55.05 L 87.16 55.27 L 86.95 55.49 L 86.73 55.71 L 86.51 55.93 L 86.30 56.15 L 86.09 56.38 L 85.88 56.60 L 85.67 56.83 L 85.46 57.05 L 85.26 57.28 L 85.05 57.52 L 84.85 57.75 L 84.65 57.99 L 84.45 58.23 L 84.25 58.47 L 84.05 58.72 L 83.86 58.97 L 83.66 59.22 L 83.47 59.47 L 83.28 59.72 L 83.09 59.97 L 82.91 60.23 L 82.73 60.48 L 82.55 60.74 L 82.37 60.99 L 82.19 61.25 L 82.02 61.50 L 81.84 61.75 L 81.67 62.01 L 81.50 62.26 L 81.33 62.52 L 81.16 62.78 L 81.00 63.03 L 80.83 63.29 L 80.66 63.55 L 80.49 63.81 L 80.32 64.07 L 80.15 64.33 L 79.98 64.59 L 79.81 64.86 L 79.64 65.12 L 79.47 65.39 L 79.29 65.66 L 79.11 65.93 L 78.93 66.20 L 78.75 66.48 L 78.58 66.75 L 78.40 67.03 L 78.23 67.31 L 78.07 67.59 L 77.91 67.87 L 77.75 68.15 L 77.61 68.44 L 77.48 68.73 L 77.35 69.02 L 77.24 69.31 L 77.14 69.60 L 77.05 69.89 L 76.98 70.19 L 76.93 70.49 L 76.89 70.79 L 76.87 71.09 L 76.87 71.39 L 76.89 71.69 L 76.93 72.00 L 76.98 72.30 L 77.05 72.61 L 77.13 72.91 L 77.23 73.21 L 77.34 73.51 L 77.47 73.81 L 77.60 74.11 L 77.75 74.40 L 77.91 74.69 L 78.07 74.97 L 78.25 75.25 L 78.43 75.53 L 78.62 75.80 L 78.81 76.06 L 79.01 76.32 L 79.22 76.57 L 79.43 76.82 L 79.64 77.06 L 79.85 77.29 L 80.06 77.52 L 80.27 77.76 L 80.48 77.99 L 80.69 78.22 L 80.89 78.45 L 81.09 78.69 L 81.28 78.93 L 81.47 79.17 L 81.65 79.42 L 81.83 79.67 L 82.00 79.92 L 82.17 80.18 L 82.34 80.44 L 82.51 80.70 L 82.68 80.96 L 82.84 81.22 L 83.01 81.48 L 83.18 81.74 L 83.36 82.00 L 83.53 82.26 L 83.71 82.53 L 83.88 82.79 L 84.06 83.05 L 84.24 83.31 L 84.42 83.57 L 84.60 83.83 L 84.78 84.09 L 84.96 84.35 L 85.14 84.61 L 85.33 84.87 L 85.51 85.13 L 85.70 85.39 L 85.88 85.65 L 86.07 85.91 L 86.26 86.17 L 86.44 86.43 L 86.63 86.69 L 86.82 86.95 L 87.01 87.21 L 87.19 87.47 L 87.38 87.73 L 87.57 87.98 L 87.76 88.24 L 87.95 88.50 L 88.13 88.75 L 88.32 89.01 L 88.51 89.27 L 88.70 89.52 L 88.88 89.78 L 89.07 90.03 L 89.26 90.28 L 89.44 90.54 L 89.62 90.79 L 89.81 91.04 L 89.99 91.30 L 90.17 91.55 L 90.35 91.80 L 90.53 92.05 L 90.71 92.30 L 90.89 92.55 L 91.07 92.80 L 91.25 93.05 L 91.43 93.30 L 91.60 93.55 L 91.78 93.80 L 91.96 94.06 L 92.14 94.31 L 92.31 94.56 L 92.49 94.81 L 92.67 95.07 L 92.85 95.32 L 93.02 95.58 L 93.20 95.84 L 93.38 96.10 L 93.56 96.36 L 93.75 96.62 L 93.93 96.89 L 94.11 97.16 L 94.30 97.42 L 94.48 97.69 L 94.67 97.96 L 94.86 98.23 L 95.04 98.50 L 95.23 98.77 L 95.42 99.04 L 95.61 99.30 L 95.81 99.57 L 96.00 99.83 L 96.19 100.09 L 96.38 100.34 L 96.58 100.60 L 96.77 100.85 L 96.96 101.09 L 97.16 101.33 L 97.35 101.57 L 97.55 101.80 L 97.75 102.02 L 97.94 102.24 L 98.13 102.43 L 98.33 102.60 L 98.51 102.74 L 98.70 102.82 L 98.87 102.86 L 99.04 102.84 L 99.20 102.76 L 99.34 102.64 L 99.47 102.46 L 99.58 102.23 L 99.68 101.97 L 99.77 101.67 L 99.86 101.34 L 99.94 101.00 L 100.01 100.65 L 100.09 100.30 L 100.17 99.95 L 100.25 99.61 L 100.34 99.28 L 100.42 98.96 L 100.52 98.64 L 100.61 98.33 L 100.70 98.02 L 100.80 97.72 L 100.89 97.43 L 100.99 97.13 L 101.08 96.84 L 101.18 96.56 L 101.27 96.27 L 101.37 95.98 L 101.46 95.70 L 101.55 95.41 L 101.64 95.12 L 101.72 94.83 L 101.81 94.54 L 101.89 94.24 L 101.97 93.94 L 102.04 93.64 L 102.12 93.33 L 102.19 93.03 L 102.27 92.72 L 102.34 92.42 L 102.42 92.11 L 102.50 91.80 L 102.58 91.50 L 102.66 91.19 L 102.75 90.88 L 102.84 90.58 L 102.93 90.28 L 103.03 89.98 L 103.14 89.69 L 103.25 89.39 L 103.37 89.10 L 103.49 88.82 L 103.62 88.53 L 103.76 88.25 L 103.90 87.98 L 104.04 87.70 L 104.19 87.43 L 104.34 87.15 L 104.49 86.88 L 104.65 86.61 L 104.81 86.35 L 104.97 86.08 L 105.13 85.81 L 105.29 85.54 L 105.46 85.28 L 105.62 85.01 L 105.78 84.74 L 105.94 84.47 L 106.10 84.20 L 106.26 83.93 L 106.41 83.66 L 106.57 83.39 L 106.72 83.12 L 106.87 82.84 L 107.03 82.57 L 107.18 82.29 L 107.33 82.02 L 107.48 81.75 L 107.63 81.47 L 107.78 81.20 L 107.94 80.93 L 108.09 80.66 L 108.25 80.39 L 108.41 80.12 L 108.57 79.85 L 108.73 79.58 L 108.90 79.32 L 109.07 79.06 L 109.24 78.80 L 109.42 78.55 L 109.60 78.29 L 109.79 78.04 L 109.98 77.79 L 110.17 77.54 L 110.36 77.30 L 110.56 77.06 L 110.76 76.82 L 110.96 76.58 L 111.16 76.34 L 111.37 76.10 L 111.57 75.86 L 111.78 75.63 L 111.99 75.39 L 112.20 75.16 L 112.41 74.93 L 112.63 74.70 L 112.84 74.46 L 113.05 74.23 L 113.26 74.00 L 113.47 73.77 L 113.69 73.54 L 113.90 73.31 L 114.11 73.08 L 114.32 72.85 L 114.53 72.62 L 114.74 72.39 L 114.96 72.16 L 115.17 71.93 L 115.38 71.70 L 115.60 71.48 L 115.81 71.26 L 116.02 71.03 L 116.24 70.81 L 116.46 70.60 L 116.68 70.38 L 116.90 70.16 L 117.12 69.95 L 117.34 69.74 L 117.56 69.53 L 117.79 69.33 L 118.01 69.13 L 118.24 68.93 L 118.47 68.73 L 118.70 68.53 L 118.94 68.34 L 119.17 68.14 L 119.41 67.95 L 119.65 67.76 L 119.89 67.56 L 120.13 67.37 L 120.37 67.18 L 120.62 66.99 L 120.86 66.79 L 121.11 66.60 L 121.36 66.42 L 121.62 66.23 L 121.87 66.05 L 122.13 65.87 L 122.39 65.69 L 122.65 65.52 L 122.92 65.35 L 123.19 65.19 L 123.46 65.03 L 123.73 64.87 L 124.00 64.72 L 124.28 64.58 L 124.56 64.43 L 124.84 64.30 L 125.12 64.17 L 125.41 64.04 L 125.70 63.92 L 125.99 63.80 L 126.28 63.68 L 126.57 63.58 L 126.87 63.47 L 127.16 63.37 L 127.46 63.28 L 127.76 63.19 L 128.07 63.11 L 128.37 63.03 L 128.68 62.95 L 128.99 62.89 L 129.30 62.82 L 129.61 62.76 L 129.92 62.71 L 130.24 62.66 L 130.56 62.62 L 130.87 62.58 L 131.19 62.55 L 131.52 62.52 L 131.84 62.50 L 132.16 62.48 L 132.49 62.47 L 132.82 62.47 L 133.14 62.47 L 133.47 62.47 L 133.80 62.48 L 134.14 62.50 L 134.47 62.52 L 134.80 62.54 L 135.14 62.56 L 135.48 62.59 L 135.81 62.62 L 136.15 62.66 L 136.49 62.69 L 136.83 62.73 L 137.17 62.76 L 137.51 62.80 L 137.85 62.83 L 138.20 62.87 L 138.54 62.90 L 138.88 62.93 L 139.22 62.95 L 139.55 62.97 L 139.86 62.97 L 140.15 62.95 L 140.42 62.90 L 140.65 62.83 L 140.84 62.73 L 140.99 62.59 L 141.10 62.41 L 141.17 62.21 L 141.21 61.97 L 141.22 61.72 L 141.21 61.45 L 141.17 61.17 L 141.11 60.87 L 141.04 60.58 L 140.95 60.28 L 140.86 59.98 L 140.76 59.68 L 140.65 59.39 L 140.52 59.09 L 140.39 58.80 L 140.25 58.50 L 140.11 58.21 L 139.95 57.92 L 139.79 57.63 L 139.63 57.35 L 139.45 57.07 L 139.28 56.79 L 139.09 56.52 L 138.91 56.25 L 138.71 55.98 L 138.52 55.72 L 138.32 55.47 L 138.12 55.22 L 137.91 54.97 L 137.71 54.74 L 137.50 54.50 L 137.29 54.28 L 137.08 54.06 L 136.86 53.84 L 136.64 53.63 L 136.42 53.43 L 136.19 53.23 L 135.96 53.04 L 135.73 52.86 L 135.50 52.68 L 135.26 52.50 L 135.01 52.34 L 134.77 52.18 L 134.52 52.02 L 134.26 51.87 L 134.00 51.73 L 133.74 51.59 L 133.47 51.46 L 133.19 51.33 L 132.91 51.22 L 132.63 51.10 L 132.34 50.99 L 132.05 50.89 L 131.76 50.79 L 131.46 50.70 L 131.16 50.61 L 130.85 50.53 L 130.55 50.45 L 130.23 50.38 L 129.92 50.31 L 129.60 50.25 L 129.29 50.19 L 128.97 50.14 L 128.64 50.09 L 128.32 50.04 L 127.99 50.00 L 127.66 49.96 L 127.34 49.92 L 127.01 49.89 L 126.67 49.87 L 126.34 49.84 L 126.01 49.82 L 125.68 49.80 L 125.34 49.78 L 125.01 49.77 L 124.68 49.76 L 124.34 49.76 L 124.01 49.75 L 123.68 49.75 L 123.35 49.75 L 123.01 49.75 L 122.69 49.75 L 122.36 49.76 L 122.03 49.77 L 121.70 49.78 L 121.38 49.80 L 121.05 49.82 L 120.73 49.84 L 120.40 49.87 L 120.08 49.90 L 119.76 49.94 L 119.44 49.98 L 119.11 50.03 L 118.79 50.09 L 118.47 50.15 L 118.14 50.23 L 117.82 50.30 L 117.50 50.39 L 117.17 50.49 L 116.85 50.58 L 116.53 50.68 L 116.21 50.76 L 115.90 50.84 L 115.58 50.90 L 115.28 50.94 L 114.97 50.95 L 114.68 50.93 L 114.39 50.89 L 114.10 50.81 L 113.82 50.72 L 113.55 50.60 L 113.27 50.47 L 113.00 50.33 L 112.73 50.17 L 112.46 50.02 L 112.19 49.86 L 111.92 49.70 L 111.64 49.54 L 111.37 49.39 L 111.09 49.23 L 110.82 49.07 L 110.54 48.92 L 110.26 48.76 L 109.99 48.61 L 109.71 48.46 L 109.42 48.32 L 109.14 48.17 L 108.86 48.03 L 108.58 47.89 L 108.29 47.75 L 108.01 47.62 L 107.72 47.49 L 107.43 47.37 L 107.14 47.25 L 106.85 47.13 L 106.56 47.02 L 106.26 46.92 L 105.97 46.82 L 105.67 46.72 L 105.37 46.64 L 105.08 46.56 L 104.78 46.48 L 104.47 46.41 L 104.17 46.35 L 103.87 46.30 L 103.56 46.25 L 103.25 46.21 L 102.94 46.18 L 102.63 46.16 L 102.32 46.15 L 102.01 46.14 Z M 106.20 51.83 L 106.57 51.90 L 106.89 52.03 L 107.12 52.21 L 107.27 52.44 L 107.29 52.69 L 107.20 52.97 L 107.01 53.26 L 106.75 53.57 L 106.42 53.87 L 106.06 54.18 L 105.68 54.49 L 105.29 54.78 L 104.89 55.05 L 104.49 55.31 L 104.09 55.54 L 103.69 55.73 L 103.30 55.88 L 102.91 55.99 L 102.54 56.05 L 102.18 56.06 L 101.85 56.00 L 101.55 55.88 L 101.31 55.70 L 101.15 55.47 L 101.09 55.17 L 101.15 54.83 L 101.31 54.45 L 101.54 54.07 L 101.83 53.69 L 102.16 53.35 L 102.50 53.05 L 102.86 52.81 L 103.23 52.61 L 103.62 52.44 L 104.02 52.29 L 104.45 52.15 L 104.90 52.01 L 105.35 51.90 L 105.78 51.84 Z"/>
  </g>
</svg>
